<mxfile host="app.diagrams.net" modified="2024-03-12T12:14:13.714Z" agent="Mozilla/5.0 (Windows NT 10.0; Win64; x64) AppleWebKit/537.36 (KHTML, like Gecko) Chrome/122.0.0.0 Safari/537.36" etag="qKZUomIhbTjz9UObEVCL" version="24.0.2" type="device">
  <diagram name="Página-1" id="d3SA8CDyubJFY9YgqP2y">
    <mxGraphModel dx="2587" dy="1016" grid="1" gridSize="10" guides="1" tooltips="1" connect="1" arrows="1" fold="1" page="1" pageScale="1" pageWidth="827" pageHeight="1169" math="0" shadow="0">
      <root>
        <mxCell id="0" />
        <mxCell id="1" parent="0" />
        <mxCell id="nBqLYXNNaOSYFLf955AP-1" value="&lt;p style=&quot;margin: 4px 0px 0px; text-align: center; font-size: 30px;&quot;&gt;&lt;i style=&quot;font-size: 30px;&quot;&gt;&amp;lt;&amp;lt;Interface&amp;gt;&amp;gt;&lt;/i&gt;&lt;br style=&quot;font-size: 30px;&quot;&gt;&lt;b style=&quot;font-size: 30px;&quot;&gt;Device driver&lt;/b&gt;&lt;/p&gt;&lt;hr style=&quot;border-style: solid; font-size: 30px;&quot;&gt;&lt;p style=&quot;margin: 0px 0px 0px 4px; font-size: 30px;&quot;&gt;+ Parámetro_1&lt;br style=&quot;font-size: 30px;&quot;&gt;+&amp;nbsp;&lt;span style=&quot;background-color: initial; font-size: 30px;&quot;&gt;Parámetro_2&lt;/span&gt;&lt;/p&gt;&lt;p style=&quot;margin: 0px 0px 0px 4px; font-size: 30px;&quot;&gt;&lt;span style=&quot;background-color: initial; font-size: 30px;&quot;&gt;+ Parámetro_N&lt;/span&gt;&lt;/p&gt;&lt;hr style=&quot;border-style: solid; font-size: 30px;&quot;&gt;&lt;p style=&quot;margin: 0px 0px 0px 4px; font-size: 30px;&quot;&gt;+ init(parámetros[]):&amp;nbsp;&lt;br style=&quot;font-size: 30px;&quot;&gt;+ config(&lt;span style=&quot;background-color: initial; font-size: 30px;&quot;&gt;parámetros[]&lt;/span&gt;&lt;span style=&quot;background-color: initial; font-size: 30px;&quot;&gt;):&lt;/span&gt;&lt;/p&gt;&lt;p style=&quot;margin: 0px 0px 0px 4px; font-size: 30px;&quot;&gt;+ read()&lt;/p&gt;&lt;p style=&quot;margin: 0px 0px 0px 4px; font-size: 30px;&quot;&gt;+ write()&lt;/p&gt;&lt;p style=&quot;margin: 0px 0px 0px 4px; font-size: 30px;&quot;&gt;+ funcion_3()&lt;/p&gt;&lt;p style=&quot;margin: 0px 0px 0px 4px; font-size: 30px;&quot;&gt;+ funcion_N()&lt;/p&gt;" style="verticalAlign=top;align=left;overflow=fill;html=1;whiteSpace=wrap;fontSize=30;strokeWidth=3;" vertex="1" parent="1">
          <mxGeometry x="460" y="240" width="420" height="470" as="geometry" />
        </mxCell>
        <mxCell id="nBqLYXNNaOSYFLf955AP-3" value="«Subsystem»&lt;br style=&quot;font-size: 30px;&quot;&gt;&lt;b style=&quot;font-size: 30px;&quot;&gt;Microcontrolador&lt;/b&gt;" style="html=1;dropTarget=0;whiteSpace=wrap;fontSize=30;strokeWidth=3;" vertex="1" parent="1">
          <mxGeometry x="-20" y="240" width="310" height="120" as="geometry" />
        </mxCell>
        <mxCell id="nBqLYXNNaOSYFLf955AP-4" value="" style="shape=module;jettyWidth=8;jettyHeight=4;" vertex="1" parent="nBqLYXNNaOSYFLf955AP-3">
          <mxGeometry x="1" width="20" height="20" relative="1" as="geometry">
            <mxPoint x="-27" y="7" as="offset" />
          </mxGeometry>
        </mxCell>
        <mxCell id="nBqLYXNNaOSYFLf955AP-5" value="" style="endArrow=block;dashed=1;endFill=0;endSize=12;html=1;rounded=0;strokeWidth=3;exitX=-0.002;exitY=0.388;exitDx=0;exitDy=0;exitPerimeter=0;entryX=1.012;entryY=0.119;entryDx=0;entryDy=0;entryPerimeter=0;" edge="1" parent="1" source="nBqLYXNNaOSYFLf955AP-7" target="nBqLYXNNaOSYFLf955AP-1">
          <mxGeometry width="160" relative="1" as="geometry">
            <mxPoint x="1060" y="300" as="sourcePoint" />
            <mxPoint x="1010" y="160" as="targetPoint" />
          </mxGeometry>
        </mxCell>
        <mxCell id="nBqLYXNNaOSYFLf955AP-6" value="" style="endArrow=block;dashed=1;endFill=0;endSize=12;html=1;rounded=0;strokeWidth=3;entryX=0.007;entryY=0.119;entryDx=0;entryDy=0;entryPerimeter=0;" edge="1" parent="1" target="nBqLYXNNaOSYFLf955AP-1">
          <mxGeometry width="160" relative="1" as="geometry">
            <mxPoint x="291" y="288" as="sourcePoint" />
            <mxPoint x="450" y="300" as="targetPoint" />
          </mxGeometry>
        </mxCell>
        <mxCell id="nBqLYXNNaOSYFLf955AP-7" value="«Subsystem»&lt;br style=&quot;font-size: 30px;&quot;&gt;&lt;b&gt;Módulo (sensor, actuador, memoria, etc.)&lt;/b&gt;" style="html=1;dropTarget=0;whiteSpace=wrap;fontSize=30;strokeWidth=3;" vertex="1" parent="1">
          <mxGeometry x="1060" y="240" width="420" height="160" as="geometry" />
        </mxCell>
        <mxCell id="nBqLYXNNaOSYFLf955AP-8" value="" style="shape=module;jettyWidth=8;jettyHeight=4;" vertex="1" parent="nBqLYXNNaOSYFLf955AP-7">
          <mxGeometry x="1" width="20" height="20" relative="1" as="geometry">
            <mxPoint x="-27" y="7" as="offset" />
          </mxGeometry>
        </mxCell>
      </root>
    </mxGraphModel>
  </diagram>
</mxfile>
